<svg width="549" height="176" viewBox="0 0 549 176" fill="none" xmlns="http://www.w3.org/2000/svg">
<path opacity="0.977" fill-rule="evenodd" clip-rule="evenodd" d="M87.5 1.5C90.8333 1.5 94.1667 1.5 97.5 1.5C97.5 5.83333 97.5 10.1667 97.5 14.5C59.6426 17.1991 34.8092 36.5324 23 72.5C21.8383 78.7981 21.0049 85.1315 20.5 91.5C16.1667 91.5 11.8333 91.5 7.5 91.5C9.60665 52.4265 28.2733 24.5932 63.5 8C71.4635 5.17848 79.4635 3.01181 87.5 1.5Z" fill="#F58500"/>
<path opacity="0.999" fill-rule="evenodd" clip-rule="evenodd" d="M91.5 70.5C95.8333 70.5 100.167 70.5 104.5 70.5C104.5 75.1667 104.5 79.8333 104.5 84.5C120.5 84.5 136.5 84.5 152.5 84.5C152.5 88.8333 152.5 93.1667 152.5 97.5C136.5 97.5 120.5 97.5 104.5 97.5C104.5 122.5 104.5 147.5 104.5 172.5C100.167 172.5 95.8333 172.5 91.5 172.5C91.5 147.5 91.5 122.5 91.5 97.5C88.5 97.5 85.5 97.5 82.5 97.5C82.5 93.1667 82.5 88.8333 82.5 84.5C85.5 84.5 88.5 84.5 91.5 84.5C91.5 79.8333 91.5 75.1667 91.5 70.5Z" fill="#F58500"/>
<path opacity="0.978" fill-rule="evenodd" clip-rule="evenodd" d="M285.5 78.5C302.867 75.892 316.7 81.5587 327 95.5C342.919 76.9424 361.752 73.4424 383.5 85C391.269 90.7038 396.436 98.2038 399 107.5C399.5 128.497 399.667 149.497 399.5 170.5C395.5 170.5 391.5 170.5 387.5 170.5C387.667 151.497 387.5 132.497 387 113.5C380.065 93.1172 366.565 86.9505 346.5 95C339.162 99.8323 334.996 106.666 334 115.5C333.5 133.83 333.333 152.164 333.5 170.5C329.167 170.5 324.833 170.5 320.5 170.5C320.667 151.164 320.5 131.83 320 112.5C315.03 96.4293 304.197 89.596 287.5 92C276.789 95.3762 270.289 102.543 268 113.5C267.5 132.497 267.333 151.497 267.5 170.5C263.167 170.5 258.833 170.5 254.5 170.5C254.5 141.167 254.5 111.833 254.5 82.5C258.226 82.1774 261.893 82.5108 265.5 83.5C265.977 84.931 266.643 86.2643 267.5 87.5C273.045 83.394 279.045 80.394 285.5 78.5Z" fill="#F58500"/>
<path opacity="0.98" fill-rule="evenodd" clip-rule="evenodd" d="M486.5 78.5C513.451 76.7141 531.618 88.3808 541 113.5C542.122 118.102 542.622 122.768 542.5 127.5C514.833 127.5 487.167 127.5 459.5 127.5C461.981 148.315 473.648 159.648 494.5 161.5C507.775 161.531 517.775 155.864 524.5 144.5C529.5 143.167 534.5 143.167 539.5 144.5C524.967 171.96 502.967 180.46 473.5 170C449.751 155.773 441.918 135.273 450 108.5C457.264 92.391 469.431 82.391 486.5 78.5ZM488.5 91.5C506.605 90.2175 519.605 97.7175 527.5 114C505.5 114.667 483.5 114.667 461.5 114C467.05 102.242 476.05 94.7423 488.5 91.5Z" fill="#F58500"/>
<path opacity="0.998" fill-rule="evenodd" clip-rule="evenodd" d="M195.5 82.5C199.833 82.5 204.167 82.5 208.5 82.5C208.5 111.833 208.5 141.167 208.5 170.5C204.167 170.5 199.833 170.5 195.5 170.5C195.5 141.167 195.5 111.833 195.5 82.5Z" fill="#F58500"/>
</svg>
